HIERARCHY
ROOT joint_0
{
	OFFSET 0.000000 0.000000 0.000000
	CHANNELS 6 Xposition Yposition Zposition Zrotation Yrotation Xrotation 
	JOINT joint_1
	{
		OFFSET 11.612000 -0.419000 106.198000
		CHANNELS 3 Zrotation Yrotation Xrotation
		JOINT joint_2
		{
			OFFSET -1.708000 -1.022000 97.564090
			CHANNELS 3 Zrotation Yrotation Xrotation
			JOINT joint_3
			{
				OFFSET -4.121000 -1.538000 97.375000
				CHANNELS 3 Zrotation Yrotation Xrotation
				JOINT joint_4
				{
					OFFSET 5.442000 -2.123000 132.795900
					CHANNELS 3 Zrotation Yrotation Xrotation
					JOINT joint_5
					{
						OFFSET 21.935000 0.195000 82.975100
						CHANNELS 3 Zrotation Yrotation Xrotation
						End Site
						{
							OFFSET 0.000000 0.000000 0.000000
						}
					}
				}
				JOINT joint_6
				{
					OFFSET 4.262000 -30.048000 73.899900
					CHANNELS 3 Zrotation Yrotation Xrotation
					JOINT joint_7
					{
						OFFSET 9.731000 -136.810010 -21.963010
						CHANNELS 3 Zrotation Yrotation Xrotation
						JOINT joint_8
						{
							OFFSET 33.360000 -35.709000 -267.597900
							CHANNELS 3 Zrotation Yrotation Xrotation
							JOINT joint_9
							{
								OFFSET 36.156000 -29.759000 -240.558040
								CHANNELS 3 Zrotation Yrotation Xrotation
								End Site
								{
									OFFSET 0.000000 0.000000 0.000000
								}
							}
						}
					}
				}
				JOINT joint_10
				{
					OFFSET 2.027000 27.734000 74.914920
					CHANNELS 3 Zrotation Yrotation Xrotation
					JOINT joint_11
					{
						OFFSET -5.183000 136.784000 -23.604980
						CHANNELS 3 Zrotation Yrotation Xrotation
						JOINT joint_12
						{
							OFFSET 29.806000 37.229000 -267.809940
							CHANNELS 3 Zrotation Yrotation Xrotation
							JOINT joint_13
							{
								OFFSET 36.890000 46.524990 -237.772030
								CHANNELS 3 Zrotation Yrotation Xrotation
								End Site
								{
									OFFSET 0.000000 0.000000 0.000000
								}
							}
						}
					}
				}
			}
		}
	}
	JOINT joint_14
	{
		OFFSET -7.290000 -102.873990 -124.314940
		CHANNELS 3 Zrotation Yrotation Xrotation
		JOINT joint_15
		{
			OFFSET -15.466000 -19.909010 -438.533020
			CHANNELS 3 Zrotation Yrotation Xrotation
			JOINT joint_16
			{
				OFFSET -26.899000 -18.922000 -464.797000
				CHANNELS 3 Zrotation Yrotation Xrotation
				JOINT joint_17
				{
					OFFSET 179.329000 -12.011000 -84.174000
					CHANNELS 3 Zrotation Yrotation Xrotation
					End Site
					{
						OFFSET 0.000000 0.000000 0.000000
					}
				}
			}
		}
	}
	JOINT joint_18
	{
		OFFSET -6.225000 101.546000 -125.479980
		CHANNELS 3 Zrotation Yrotation Xrotation
		JOINT joint_19
		{
			OFFSET -13.973000 7.996000 -438.963010
			CHANNELS 3 Zrotation Yrotation Xrotation
			JOINT joint_20
			{
				OFFSET -44.294000 5.716000 -463.813970
				CHANNELS 3 Zrotation Yrotation Xrotation
				JOINT joint_21
				{
					OFFSET 178.505000 -4.689000 -85.139000
					CHANNELS 3 Zrotation Yrotation Xrotation
					End Site
					{
						OFFSET 0.000000 0.000000 0.000000
					}
				}
			}
		}
	}
}
MOTION
Frames: 6
Frame Time: 0.016667
-21.941000 -133.259990 1130.965940 1.760373 -2.154690 0.297737 -1.153106 4.347933 -0.953350 -1.189502 -0.876159 0.166023 -1.175227 0.877709 -0.127799 -0.296080 -0.871257 1.125932 0.000000 0.000000 0.000000 -1.726367 0.144032 2.929598 -0.280043 -0.539607 -3.431910 1.373053 -6.597888 3.358130 0.000000 0.000000 0.000000 -1.912060 -0.344738 1.774070 -0.422249 -0.195834 -1.116795 -1.000103 -3.026552 -2.765593 0.000000 0.000000 0.000000 -0.637331 2.145105 -0.680938 -0.683981 2.775885 -0.162692 -0.484293 -1.822617 -0.348933 0.000000 0.000000 0.000000 2.526778 2.942286 0.613989 2.494617 -0.805095 -0.248843 2.376807 0.334653 1.142020 0.000000 0.000000 0.000000 
-20.709000 -133.022990 1130.890990 1.805272 -2.018390 0.336564 -1.158154 4.346773 -0.967268 -1.193764 -0.879378 0.163074 -1.179097 0.882525 -0.124770 -0.299243 -0.979237 1.138406 0.000000 0.000000 0.000000 -1.746906 0.192366 2.928300 -0.289991 -0.494838 -3.463715 1.374955 -6.601624 3.370658 0.000000 0.000000 0.000000 -1.856210 -0.291924 1.769339 -0.421651 -0.153665 -1.151479 -1.005184 -3.050612 -2.768378 0.000000 0.000000 0.000000 -0.617043 2.154279 -0.769697 -0.660737 2.626519 -0.121658 -0.465240 -1.822161 -0.339986 0.000000 0.000000 0.000000 2.527352 2.851300 0.555593 2.495100 -0.788424 -0.255121 2.376291 0.319454 1.141425 0.000000 0.000000 0.000000 
-19.194000 -132.722000 1130.775020 1.856691 -1.853893 0.395604 -1.165187 4.334711 -1.001743 -1.199431 -0.882339 0.161319 -1.184432 0.887408 -0.121693 -0.304775 -1.095220 1.159757 0.000000 0.000000 0.000000 -1.778300 0.251594 2.926944 -0.301507 -0.440974 -3.500351 1.377320 -6.605085 3.385725 0.000000 0.000000 0.000000 -1.778573 -0.228760 1.759705 -0.420429 -0.104952 -1.195483 -1.007003 -3.069183 -2.755141 0.000000 0.000000 0.000000 -0.584584 2.175663 -0.904521 -0.625245 2.433662 -0.053191 -0.433902 -1.834418 -0.326132 0.000000 0.000000 0.000000 2.526520 2.740442 0.470512 2.493726 -0.761852 -0.260144 2.373948 0.301892 1.139896 0.000000 0.000000 0.000000 
-17.160000 -132.347000 1130.620000 1.911478 -1.657495 0.448549 -1.167212 4.313603 -1.027664 -1.200026 -0.879891 0.162000 -1.185062 0.886107 -0.120549 -0.308002 -1.224596 1.172368 0.000000 0.000000 0.000000 -1.808733 0.338955 2.917242 -0.317902 -0.357886 -3.543822 1.382698 -6.627808 3.406662 0.000000 0.000000 0.000000 -1.681412 -0.150323 1.728375 -0.416083 -0.042645 -1.229486 -1.007988 -3.084034 -2.739848 0.000000 0.000000 0.000000 -0.547269 2.217381 -1.036101 -0.581741 2.199633 0.010346 -0.395865 -1.867303 -0.310509 0.000000 0.000000 0.000000 2.516416 2.619014 0.392153 2.483716 -0.719316 -0.265405 2.362589 0.229623 1.132599 0.000000 0.000000 0.000000 
-14.540000 -131.896000 1130.411010 1.970794 -1.436778 0.477341 -1.159671 4.298162 -1.023174 -1.191627 -0.869877 0.163463 -1.177157 0.872742 -0.121840 -0.305089 -1.365403 1.161691 0.000000 0.000000 0.000000 -1.843444 0.460792 2.900582 -0.340336 -0.240149 -3.596482 1.392061 -6.680630 3.431421 0.000000 0.000000 0.000000 -1.561465 -0.063151 1.646875 -0.405779 0.028898 -1.220527 -1.008699 -3.089278 -2.733188 0.000000 0.000000 0.000000 -0.509382 2.299239 -1.132170 -0.531264 1.912158 0.048717 -0.353719 -1.922908 -0.294465 0.000000 0.000000 0.000000 2.488691 2.493865 0.344160 2.457610 -0.646571 -0.270851 2.334492 0.059530 1.114695 0.000000 0.000000 0.000000 
-11.427000 -131.373000 1130.149050 2.034994 -1.192239 0.492642 -1.144895 4.285114 -1.000486 -1.176362 -0.852477 0.166485 -1.162849 0.849669 -0.125597 -0.297978 -1.517193 1.135007 0.000000 0.000000 0.000000 -1.887749 0.610109 2.883050 -0.367590 -0.096375 -3.660115 1.404328 -6.754899 3.458842 0.000000 0.000000 0.000000 -1.418097 0.030646 1.518142 -0.389984 0.107216 -1.170996 -1.008404 -3.085345 -2.729471 0.000000 0.000000 0.000000 -0.468387 2.416599 -1.211733 -0.472496 1.570463 0.073391 -0.305841 -1.994588 -0.276793 0.000000 0.000000 0.000000 2.446660 2.360620 0.313084 2.418261 -0.546765 -0.275682 2.292742 -0.185214 1.088268 0.000000 0.000000 0.000000 
